<svg xmlns="http://www.w3.org/2000/svg" width="331.77" height="22.37" viewBox="0 0 331.77 22.37"><path d="M29.2 0c-4.76 0-7.56 2.74-7.56 7.1v2.38h-9.12V.36H9.13v9.12H0v3.4h9.13V22h3.39v-9.12h9.12v2.38c0 4.36 3.07 7.1 7.56 7.1s7.59-2.74 7.59-7.1V7.1c0-4.35-3.07-7.1-7.59-7.1zm4.2 15.26c0 1.38-.55 3.71-4.2 3.71-1.56 0-4.17-.49-4.17-3.71V7.1c0-1.59.43-3.71 4.17-3.71 3.74 0 4.2 2.33 4.2 3.71zM44.72.37h-4.33v21.64h3.39V6.63l3.21 8.16h3.39l3.21-8.16v15.38h3.39V.37h-4.33l-3.96 10.11zM68.14 0c-4.75 0-7.55 2.74-7.55 7.1v8.16c0 4.36 3.07 7.1 7.55 7.1s7.59-2.74 7.59-7.1V7.1c0-4.36-3.07-7.1-7.59-7.1m4.2 15.26c0 1.38-.54 3.71-4.2 3.71-1.55 0-4.16-.49-4.16-3.71V7.1c0-1.59.43-3.71 4.16-3.71s4.2 2.33 4.2 3.71zM121.51 0c-4.75 0-7.55 2.74-7.55 7.1v8.16c0 4.36 3.07 7.1 7.55 7.1s7.59-2.74 7.59-7.1V7.1c0-4.36-3.07-7.1-7.59-7.1m4.2 15.26c0 1.38-.54 3.71-4.2 3.71-1.55 0-4.16-.49-4.16-3.71V7.1c0-1.59.43-3.71 4.16-3.71s4.2 2.33 4.2 3.71zM93.4 7.22A6.85 6.85 0 0 0 86.55.37h-7.21V22h3.39v-7.94h4.17L90.11 22h3.65l-3.61-8.95a6.87 6.87 0 0 0 3.25-5.84M82.73 3.75h3.85a3.46 3.46 0 0 1 0 6.92h-3.85zm27.98 3.47a6.85 6.85 0 0 0-6.85-6.85h-7.21V22h3.39v-7.94h4.17l3.21 7.94h3.65l-3.61-8.95a6.87 6.87 0 0 0 3.25-5.84m-10.67-3.46h3.82a3.46 3.46 0 0 1 0 6.92h-3.82zm231.37 3.47a6.85 6.85 0 0 0-6.85-6.85h-7.22V22h3.4v-7.94h4.16l3.21 7.94h3.66l-3.62-8.95a6.85 6.85 0 0 0 3.26-5.84m-10.67-3.46h3.84a3.46 3.46 0 0 1 0 6.92h-3.82zM139.31 7.58l-3.21 8.17V.37h-3.39v21.64h4.33l3.97-10.11 3.96 10.11h4.33V.37h-3.39v15.38l-3.21-8.17zM179.36.37l-8.42 8.42-8.42-8.42-2.4 2.4 8.42 8.42-8.42 8.42 2.4 2.4 8.42-8.42 8.42 8.42 2.39-2.4-8.42-8.42 8.42-8.42zm83.89 21.64v-3.39h-9.59v-5.73h8.87v-3.4h-8.87V3.76h9.59V.37h-12.98v21.64zm50.49 0v-3.39h-9.59v-5.73h8.87v-3.4h-8.87V3.76h9.59V.37h-12.98v21.64zM286.12.37h-3.39v21.64h3.39v-9.2h7.64v9.2h3.39V.37h-3.39v9.05h-7.64zm-15.19 3.39v18.25h3.39V3.76h5.52V.37h-14.42v3.39zM220.32 0c-4.75 0-7.55 2.74-7.55 7.1v2.38h-9.13V.36h-3.39v9.12h-9.12v3.4h9.12V22h3.39v-9.12h9.13v2.38c0 4.36 3.07 7.1 7.55 7.1s7.59-2.74 7.59-7.1V7.1c0-4.35-3.07-7.1-7.59-7.1zm4.2 15.26c0 1.38-.54 3.71-4.2 3.71-1.55 0-4.16-.49-4.16-3.71V7.1c0-1.59.43-3.71 4.16-3.71s4.2 2.33 4.2 3.71zm14.21-5.77v3.4h4.54v2.38c0 1.38-.54 3.71-4.2 3.71-1.55 0-4.16-.48-4.16-3.71V7.11c0-1.59.43-3.71 4.16-3.71 2.86 0 3.81 1.42 4.09 2.7h3.42c-.44-3.76-3.37-6.09-7.53-6.09-4.75 0-7.55 2.74-7.55 7.1v8.16c0 4.36 3.07 7.1 7.55 7.1s7.59-2.74 7.59-7.1V9.49z"/></svg>